<?xml version="1.0" encoding="UTF-8"?>
<svg id="Layer_1" data-name="Layer 1" xmlns="http://www.w3.org/2000/svg" viewBox="0 0 135 113">
  <defs>
    <style>
      .cls-1 {
        fill: #c7daff;
      }

      .cls-1, .cls-2 {
        stroke-width: 0px;
      }

      .cls-3 {
        fill: #9bb8ff;
        stroke: #000;
        stroke-miterlimit: 10;
      }

      .cls-2 {
        fill: #e6e6e6;
      }
    </style>
  </defs>
  <g>
    <path class="cls-3" d="M126.98,61.26c-.18,20.55,5.91,33.59,6.98,35.8-.93.11-11.08,1.12-16.29-10.64-1.83-4.13-2.79-8.71-2.79-8.71-.82-3.9-1.13-7.68-1.27-11.07,0-.22-.02-.42-.02-.64l.02,2.57c-.02.87-.07,1.66-.12,2.36-4.02,4.89-9.68,11.02-16.76,16.45-2.72,2.09-12.75,9.52-30.03,13.26-14.39,3.12-29.13,6.03-46.32-4.55C9.91,89.66-.19,79.01.36,73.84c.49-4.57,9.18-3.54,9.31-6.77.1-2.45-4.8-5.37-9.78-7.74,3.61-6.52,9.51-15.67,17.69-22.25,5.49-4.42,10.34-6.12,12.66-6.83,5.61-1.71,11.73-1.83,14.34-1.88,0,0,.63-.04,1.25,0,1.9.08,4.41.69,21.43,3.4,19.43,3.09,29.02,8.6,33.18,12.09.09.08,4.41,3.92,13.04,11.61v1.62c.48-11.34,5.96-20.28,6.98-21.94,5.64-9.2,12.02-9.73,14.43-9.68-1.1,2.05-7.73,14.77-7.91,35.8v-.02Z"/>
    <path class="cls-3" d="M41.33,29.3c1.26-3.44,3.35-8.21,6.52-11.61,3.71-3.99,5.9-2.85,12.92-4.34,7.78-1.65,13.82-4.89,18.27-7.28,3.96-2.13,7.18-4.29,9.31-5.8.41,5.74,1.75,27.59-3.26,33.86-1.45,1.83-2.97,1.73-10.71,0-6.48-1.45-9.72-2.18-12.1-2.91-4.85-1.48-11.86-2.83-20.95-1.93h0Z"/>
    <path class="cls-3" d="M61.73,101.75c.69,1.67,1.82,3.96,3.47,5.48,1.93,1.77,3.01,1.04,6.56,1.3,3.94.29,7.02,1.52,9.29,2.43,2.03.81,3.67,1.68,4.77,2.31.11-2.96.42-14.23-2.2-17.09-.76-.83-1.52-.68-5.38.76-3.23,1.2-4.84,1.8-6.03,2.34-2.41,1.1-5.91,2.29-10.48,2.47h0Z"/>
    <path class="cls-3" d="M31.84,81.07c-.17-4.58-.33-9.15-.5-13.72.17-.75.34-1.5.51-2.25,3.31,3.04,6.63,6.08,9.94,9.12h0c-3.31,2.29-6.63,4.57-9.94,6.86Z"/>
    <path class="cls-3" d="M26.89,34.14c2.08,8.77,5.26,25.58,4.19,46.45-.34,6.66-1.05,12.51-1.86,17.41"/>
    <path class="cls-3" d="M14.79,58.33c.08-.28,1.5-4.84,4.19-4.84s4.11,4.56,4.19,4.84"/>
  </g>
  <path class="cls-2" d="M43.42,52.44c.61-.24,4.54.02,12.39.55,0,0,8.12.55,15.88,7.44.04.04,1.75,1.56,1.75,1.56h0c-.05-.05-26.1-29.31-30.62-18.86-.89,2.06-1.65,7.31.58,9.3h0Z"/>
  <path class="cls-1" d="M45.77,53.31c.49-.16,3.77.24,10.34,1.04,0,0,6.78.83,13.75,6.51.03.03,1.58,1.28,1.58,1.28h0s-23.9-23.83-26.85-16.02c-.59,1.55-.81,5.54,1.19,7.18Z"/>
</svg>