<?xml version="1.0" encoding="UTF-8"?>
<svg id="Layer_1" data-name="Layer 1" xmlns="http://www.w3.org/2000/svg" viewBox="0 0 135 113">
  <defs>
    <style>
      .cls-1 {
        fill: #d9d9d9;
        stroke: #000;
        stroke-miterlimit: 10;
      }
    </style>
  </defs>
  <path class="cls-1" d="M90.17,83.95c-6.7,1.6-13.68,3.39-20.89,5.41-8.83,2.47-16.95,4.99-24.37,7.47-1.36-1.08-2.89-2.65-3.48-4.64-1.79-6.05,6.68-10.66,7.96-11.34-.3-.79-.66-2.06-.5-3.61.5-4.81,5.46-6.78,3.98-9.28-.61-1.03-1.69-1.1-8.95-3.61-12.13-4.18-18.2-6.28-20.39-8.76-.44-.5-1.28-1.64-3.48-2.58-1.93-.82-3.01-.67-3.98-1.29-2.41-1.53.63-4.76.99-5.15,2.58-2.74,6.29-3.47,7.46-5.93.48-1,.5-1.8.5-1.8.04-1.54-.94-1.9-.5-2.58.86-1.32,5.17-.94,5.97-2.06.66-.93-1.76-1.97-4.48-3.87-1.67-1.17-3.73-2.85-5.47-5.15.28-.6.79-1.38,1.75-2.18,2.16-1.8,5.26-2.64,6.7-2.97,4.83-.87,12.04-1.82,20.89-1.8,6.16.01,11.4.5,15.42,1.03,9.4.06,17.3.28,23.37.52,5.83.22,10.39.47,11.94,2.06,1.07,1.1.29,2.44-.5,3.35-2.44,3.18-2.72,5.7-2.49,7.47.19,1.41.85,3.39.5,6.44-.2,1.7-.55,2.31-.99,2.83-1.81,2.11-5.71,3.24-6.96,3.61-2.2.64-3.13.61-5.97,1.55-1.93.64-3.62,1.21-3.48,1.8.13.55,1.7.54,3.98,1.55,1.17.52,2.62,1.16,2.98,2.06.59,1.45-2.19,2.22-1.49,3.09.75.94,4.3.52,8.95,1.29,2.57.43,4.33,1.09,7.83,2.41,3.43,1.3,4.89,2.12,12.06,5.83,7.49,3.88,8.34,4.26,8.45,5.15.36,2.94-8.07,5.41-10.94,6.18h0c-7.46,2.49-14.92,4.98-22.38,7.47Z"/>
  <path class="cls-1" d="M43.42,91.68c11.89-4.35,22.32-7.66,30.34-10.05,8.06-2.4,14.65-4.16,18.4-5.15,9.34-2.48,17.5-4.45,23.87-5.93"/>
  <path class="cls-1" d="M100.12,21.84c.4,2-20.42,5.33-40.28,6.18-14.92.65-37.32.25-38.79-3.09-.68-1.54,3.19-3.53,5.47-4.38,1.5-.56,3.24-.97,10.44-1.55,7.2-.57,10.81-.86,15.91-.77,6.15.11,5.84.61,13.43,1.03,10.48.59,12.77-.27,21.88.52,5.7.49,11.72,1.01,11.94,2.06Z"/>
  <path class="cls-1" d="M81.22,23.39c-.13,1.64-6.01,3.15-10.94,2.83-3.82-.24-6.37-1.52-7.46-2.06-2.53-1.27-3.5-2.64-3.98-3.35-.91-1.34-2.08-3.06-.5-3.87,1.39-.71,4.57-.53,6.47.26,2.68,1.11,1.17,2.77,3.48,3.61,2.58.94,5.69-.81,9.45.26.19.05,3.59,1.04,3.48,2.32Z"/>
  <ellipse class="cls-1" cx="73.01" cy="23.64" rx="5.22" ry="1.8"/>
  <path class="cls-1" d="M49.39,80.85c21.88-5.24,43.76-10.48,65.65-15.72"/>
  <path class="cls-1" d="M29.53,34.44c22.7-.68,45.4-1.36,68.09-2.03"/>
</svg>